<svg width="326" height="40" viewBox="0 0 326 40" fill="none" xmlns="http://www.w3.org/2000/svg">
<path d="M294.138 33.3333V27C294.138 23.134 297.272 20 301.138 20H310.526C314.392 20 317.526 23.134 317.526 27V33.3333" stroke="white" stroke-width="1.5" stroke-linecap="round" stroke-linejoin="round"/>
<path d="M305.832 20C309.523 20 312.515 17.0152 312.515 13.3333C312.515 9.65142 309.523 6.66666 305.832 6.66666C302.142 6.66666 299.15 9.65142 299.15 13.3333C299.15 17.0152 302.142 20 305.832 20Z" stroke="white" stroke-width="1.5" stroke-linecap="round" stroke-linejoin="round"/>
<path d="M3.46216 13.3333L19.8998 5.13361C20.0685 5.04949 20.2669 5.04949 20.4355 5.13361L36.8732 13.3333" stroke="white" stroke-width="1.5" stroke-linecap="round" stroke-linejoin="round"/>
<path d="M33.532 18.3333V33C33.532 34.1046 32.6366 35 31.532 35H8.80322C7.69865 35 6.80322 34.1046 6.80322 33V18.3333" stroke="white" stroke-width="1.5" stroke-linecap="round" stroke-linejoin="round"/>
<path d="M123.742 28.3333L130.424 35" stroke="white" stroke-width="1.5" stroke-linecap="round" stroke-linejoin="round"/>
<path d="M100.354 18.3333C100.354 25.6971 106.338 31.6667 113.719 31.6667C117.416 31.6667 120.762 30.1691 123.182 27.7489C125.593 25.337 127.083 22.0089 127.083 18.3333C127.083 10.9695 121.1 5 113.719 5C106.338 5 100.354 10.9695 100.354 18.3333Z" stroke="white" stroke-width="1.5" stroke-linecap="round" stroke-linejoin="round"/>
<path d="M197.246 31.6667V7C197.246 5.89543 198.142 5 199.246 5H223.375C223.707 5 223.975 5.26863 223.975 5.6V27.8571" stroke="white" stroke-width="1.5" stroke-linecap="round"/>
<path d="M200.587 28.3333L223.975 28.3333" stroke="white" stroke-width="1.5" stroke-linecap="round"/>
<path d="M200.587 35H223.975" stroke="white" stroke-width="1.5" stroke-linecap="round"/>
<path d="M200.587 35C198.742 35 197.246 33.5076 197.246 31.6667C197.246 29.8257 198.742 28.3333 200.587 28.3333" stroke="white" stroke-width="1.5" stroke-linecap="round" stroke-linejoin="round"/>
<path d="M205.599 11.6667L215.622 11.6667" stroke="white" stroke-width="1.5" stroke-linecap="round"/>
</svg>
